<?xml version="1.0" encoding="UTF-8" standalone="no"?>
<svg
   xmlns:dc="http://purl.org/dc/elements/1.1/"
   xmlns:cc="http://creativecommons.org/ns#"
   xmlns:rdf="http://www.w3.org/1999/02/22-rdf-syntax-ns#"
   xmlns:svg="http://www.w3.org/2000/svg"
   xmlns="http://www.w3.org/2000/svg"
   xmlns:sodipodi="http://sodipodi.sourceforge.net/DTD/sodipodi-0.dtd"
   xmlns:inkscape="http://www.inkscape.org/namespaces/inkscape"
   sodipodi:docname="favicon.svg"
   inkscape:version="1.0 (4035a4f, 2020-05-01)"
   id="svg869"
   version="1.1"
   viewBox="0 0 26.458333 26.458333"
   height="100"
   width="100">
  <defs
     id="defs863" />
  <sodipodi:namedview
     inkscape:window-maximized="0"
     inkscape:window-y="238"
     inkscape:window-x="1179"
     inkscape:window-height="1174"
     inkscape:window-width="1252"
     units="px"
     showgrid="false"
     inkscape:document-rotation="0"
     inkscape:current-layer="g1026-5-7"
     inkscape:document-units="mm"
     inkscape:cy="62.984935"
     inkscape:cx="48.164024"
     inkscape:zoom="3.8840859"
     inkscape:pageshadow="2"
     inkscape:pageopacity="0.0"
     borderopacity="1.0"
     bordercolor="#666666"
     pagecolor="#ffffff"
     id="base" />
  <metadata
     id="metadata866">
    <rdf:RDF>
      <cc:Work
         rdf:about="">
        <dc:format>image/svg+xml</dc:format>
        <dc:type
           rdf:resource="http://purl.org/dc/dcmitype/StillImage" />
        <dc:title></dc:title>
      </cc:Work>
    </rdf:RDF>
  </metadata>
  <g
     id="layer1"
     inkscape:groupmode="layer"
     inkscape:label="Layer 1">
    <g
       id="g1026-5-7"
       style="clip-rule:evenodd;display:inline;fill-rule:evenodd;stroke-linecap:round;stroke-linejoin:round;stroke-miterlimit:1.5"
       transform="matrix(0.0553685,0,0,0.04678315,-59.535295,-27.590558)">
      <path
         transform="matrix(4.7785895,0,0,5.6555263,1075.2557,589.75417)"
         d="m 31.869447,100.54611 1.487322,-56.585952 -6.063505,-10.71483 h 55.089687 v -9.932586 c 0,0 -47.535994,-0.264873 -55.089687,0 -5.079951,0.178233 -23.9855298,0 -23.9855298,0 v 9.932586 H 20.039659 V 13.427013 h 77.357136"
         style="fill:none;stroke:#2ec4b6;stroke-width:4.95326px"
         id="path1018-4-8" />
      <path
         transform="matrix(4.7785895,0,0,5.6555263,1075.2557,589.75417)"
         d="M 53.418337,100.54608 V 43.960158 H 43.385879 l -0.943005,56.585932"
         style="fill:none;stroke:#2ec4b6;stroke-width:4.95326px"
         id="path1474" />
      <path
         transform="matrix(4.7785895,0,0,5.6555263,1075.2557,589.75417)"
         d="M 73.663493,100.5464 71.627266,43.960158 h -9.924267 l 1.467865,56.585952"
         style="fill:none;stroke:#2ec4b6;stroke-width:4.95326px"
         id="path1466" />
      <rect
         x="1377.88"
         y="603.80103"
         width="162.804"
         height="61.896"
         style="fill:#2ec4b6;stroke:#2ec4b6;stroke-width:21.46px"
         id="rect1020-3-4" />
      <ellipse
         cx="1504.55"
         cy="615.24402"
         rx="10.757"
         ry="11.443"
         style="fill:#ffffff"
         id="ellipse1022-6-1" />
      <path
         d="m 1553.22,648.533 c 0,-1.832 -1.487,-3.319 -3.318,-3.319 h -42.996 c -1.832,0 -3.319,1.487 -3.319,3.319 v 6.638 c 0,1.831 1.487,3.318 3.319,3.318 h 42.996 c 1.831,0 3.318,-1.487 3.318,-3.318 z"
         style="fill:#ffffff"
         id="path1024-5-7" />
    </g>
  </g>
</svg>
