<?xml version="1.0" encoding="UTF-8" standalone="no"?>
<svg
   xmlns:dc="http://purl.org/dc/elements/1.1/"
   xmlns:cc="http://creativecommons.org/ns#"
   xmlns:rdf="http://www.w3.org/1999/02/22-rdf-syntax-ns#"
   xmlns:svg="http://www.w3.org/2000/svg"
   xmlns="http://www.w3.org/2000/svg"
   xmlns:sodipodi="http://sodipodi.sourceforge.net/DTD/sodipodi-0.dtd"
   xmlns:inkscape="http://www.inkscape.org/namespaces/inkscape"
   width="100"
   height="100"
   viewBox="0 0 26.458333 26.458333"
   version="1.1"
   id="svg869"
   inkscape:version="1.0 (4035a4f, 2020-05-01)"
   sodipodi:docname="icon.svg">
  <defs
     id="defs863" />
  <sodipodi:namedview
     id="base"
     pagecolor="#000000"
     bordercolor="#666666"
     borderopacity="1.0"
     inkscape:pageopacity="0"
     inkscape:pageshadow="2"
     inkscape:zoom="9.4324888"
     inkscape:cx="40.58304"
     inkscape:cy="66.261686"
     inkscape:document-units="mm"
     inkscape:current-layer="g1026-5-7"
     inkscape:document-rotation="0"
     showgrid="false"
     units="px"
     inkscape:window-width="1928"
     inkscape:window-height="1174"
     inkscape:window-x="1179"
     inkscape:window-y="210"
     inkscape:window-maximized="0" />
  <metadata
     id="metadata866">
    <rdf:RDF>
      <cc:Work
         rdf:about="">
        <dc:format>image/svg+xml</dc:format>
        <dc:type
           rdf:resource="http://purl.org/dc/dcmitype/StillImage" />
        <dc:title></dc:title>
      </cc:Work>
    </rdf:RDF>
  </metadata>
  <g
     inkscape:label="Layer 1"
     inkscape:groupmode="layer"
     id="layer1">
    <g
       transform="matrix(0.0553685,0,0,0.04678315,-59.535295,-27.590558)"
       style="clip-rule:evenodd;display:inline;fill-rule:evenodd;stroke-linecap:round;stroke-linejoin:round;stroke-miterlimit:1.5"
       id="g1026-5-7">
      <path
         sodipodi:nodetypes="ccccccccccc"
         id="path1018-4-8"
         style="fill:none;fill-rule:nonzero;stroke:#fffffe;stroke-width:4.95326px;stroke-opacity:1"
         d="m 31.869447,100.54611 1.487322,-56.585952 -6.063505,-10.71483 h 55.089687 v -9.932586 c 0,0 -47.535994,-0.264873 -55.089687,0 -5.079951,0.178233 -23.9855298,0 -23.9855298,0 v 9.932586 H 20.039659 V 13.427013 l 62.602634,0.15107"
         transform="matrix(4.7785895,0,0,5.6555263,1075.2557,589.75417)" />
      <path
         id="path1474"
         style="fill:none;stroke:#fffffe;stroke-width:4.95326px;stroke-opacity:1"
         d="M 53.418337,100.54608 V 43.960158 H 43.385879 l -0.943005,56.585932"
         transform="matrix(4.7785895,0,0,5.6555263,1075.2557,589.75417)" />
      <path
         id="path1466"
         style="fill:none;stroke:#fffffe;stroke-width:4.95326px;stroke-opacity:1"
         d="M 73.663493,100.5464 71.627266,43.960158 h -9.924267 l 1.467865,56.585952"
         transform="matrix(4.7785895,0,0,5.6555263,1075.2557,589.75417)" />
      <path
         d="m 1378.6993,591.19639 c -6.0487,0 -10.9104,4.95965 -10.9104,11.12637 v 67.01725 c 0,6.1667 4.8617,11.12638 10.9104,11.12638 h 163.5267 c 6.0487,0 10.9105,-4.95968 10.9105,-11.12638 v -11.01375 h -46.0499 c -1.6286,0 -2.9399,-1.33527 -2.94,-2.99556 v -7.30873 c 0,-1.66028 1.3114,-2.99556 2.94,-2.99556 h 46.0499 v -42.70365 c 0,-6.16672 -4.8618,-11.12637 -10.9105,-11.12637 z m 127.342,10.96871 a 11.237424,12.340387 0 0 1 11.2371,12.33136 11.237424,12.340387 0 0 1 -11.2371,12.34261 11.237424,12.340387 0 0 1 -11.2372,-12.34261 11.237424,12.340387 0 0 1 11.2372,-12.33136 z"
         style="fill:#ffffff;fill-opacity:1;fill-rule:nonzero;stroke:none;stroke-width:0;stroke-miterlimit:1.5;stroke-dasharray:none;stroke-opacity:1;paint-order:markers stroke fill"
         id="rect940" />
    </g>
  </g>
</svg>
