<?xml version="1.0" encoding="UTF-8" standalone="no"?>
<svg
   xmlns:dc="http://purl.org/dc/elements/1.1/"
   xmlns:cc="http://creativecommons.org/ns#"
   xmlns:rdf="http://www.w3.org/1999/02/22-rdf-syntax-ns#"
   xmlns:svg="http://www.w3.org/2000/svg"
   xmlns="http://www.w3.org/2000/svg"
   xmlns:sodipodi="http://sodipodi.sourceforge.net/DTD/sodipodi-0.dtd"
   xmlns:inkscape="http://www.inkscape.org/namespaces/inkscape"
   inkscape:version="1.0 (4035a4f, 2020-05-01)"
   inkscape:export-ydpi="96"
   inkscape:export-xdpi="96"
   inkscape:export-filename="/Users/fwilhelm/Sources/pytanis/docs/assets/logos/logo.png"
   sodipodi:docname="logo.svg"
   id="svg1040"
   style="clip-rule:evenodd;fill-rule:evenodd;stroke-linecap:round;stroke-linejoin:round;stroke-miterlimit:1.5"
   xml:space="preserve"
   version="1.1"
   viewBox="0 0 1280 640"
   height="640"
   width="1280"><metadata
     id="metadata1046"><rdf:RDF><cc:Work
         rdf:about=""><dc:format>image/svg+xml</dc:format><dc:type
           rdf:resource="http://purl.org/dc/dcmitype/StillImage" /><dc:title></dc:title></cc:Work></rdf:RDF></metadata><defs
     id="defs1044" /><sodipodi:namedview
     inkscape:current-layer="svg1040"
     inkscape:window-maximized="0"
     inkscape:window-y="25"
     inkscape:window-x="0"
     inkscape:cy="301.02361"
     inkscape:cx="640.90147"
     inkscape:zoom="0.4966035"
     units="in"
     showgrid="false"
     id="namedview1042"
     inkscape:window-height="709"
     inkscape:window-width="1280"
     inkscape:pageshadow="2"
     inkscape:pageopacity="0"
     guidetolerance="10"
     gridtolerance="10"
     objecttolerance="10"
     borderopacity="1"
     bordercolor="#666666"
     pagecolor="#ffffff" /><g
     style="display:inline"
     id="g1038" /><g
     transform="translate(-11.462925,-7.7942693)"
     id="g1665"><g
       id="g1016"
       style="clip-rule:evenodd;display:inline;fill-rule:evenodd;stroke-linecap:round;stroke-linejoin:round;stroke-miterlimit:1.5"
       transform="matrix(0.35398137,0,0,0.25592043,158.32106,-36.896567)"><g
         id="g1014"><path
           d="m 1902.11,2032.41 v 66.496 h 281.582 v -66.496 h -206.468 v -50.339 h 140.282 v -51.806 h -206.517 l 38.377,-1262.17 h 43.601 l -26.291,1199.53 h 62.69 V 668.095 h 44.077 l 16.891,1199.53 h 53.812 l -26.64,-1199.53 26.64,-55.714 H 1902.11 v -51.647 c 0,0 208.849,-1.378 242.036,0 22.319,0.927 105.38,0 105.38,0 v 51.647 h -73.512 v -103.05 h -339.866"
           style="fill:none;stroke:#e71d36;stroke-width:23.68px"
           id="path1006" /><rect
           x="1836.15"
           y="452.41901"
           width="149.683"
           height="56.907001"
           style="fill:#e71d36;stroke:#e71d36;stroke-width:19.73px"
           id="rect1008" /><ellipse
           cx="1869.37"
           cy="462.94"
           rx="9.8900003"
           ry="10.521"
           style="fill:#ffffff"
           id="ellipse1010" /><path
           d="m 1824.29,493.546 c 0,-1.684 1.367,-3.051 3.051,-3.051 h 39.531 c 1.684,0 3.051,1.367 3.051,3.051 v 6.103 c 0,1.684 -1.367,3.051 -3.051,3.051 h -39.531 c -1.684,0 -3.051,-1.367 -3.051,-3.051 z"
           style="fill:#ffffff"
           id="path1012" /></g></g><g
       id="g1026"
       style="clip-rule:evenodd;display:inline;fill-rule:evenodd;stroke-linecap:round;stroke-linejoin:round;stroke-miterlimit:1.5"
       transform="matrix(0.35398137,0,0,0.25592043,158.32106,-36.896567)"><path
         d="m 1468.93,2322.28 v 72.324 h -306.263 v -72.324 h 224.565 v -54.751 h -152.578 v -56.347 h 224.619 l -41.74,-1372.81 h -47.424 l 28.596,1304.67 H 1330.52 V 838.372 h -47.941 l -18.371,1304.67 h -58.529 l 28.975,-1304.67 -28.975,-60.598 H 1468.93 V 721.6 c 0,0 -227.155,-1.498 -263.251,0 -24.275,1.008 -114.617,0 -114.617,0 v 56.174 h 79.955 V 665.691 h 369.658"
         style="fill:none;stroke:#2ec4b6;stroke-width:25.75px"
         id="path1018" /><rect
         x="1377.88"
         y="603.80103"
         width="162.804"
         height="61.896"
         style="fill:#2ec4b6;stroke:#2ec4b6;stroke-width:21.46px"
         id="rect1020" /><ellipse
         cx="1504.55"
         cy="615.24402"
         rx="10.757"
         ry="11.443"
         style="fill:#ffffff"
         id="ellipse1022" /><path
         d="m 1553.22,648.533 c 0,-1.832 -1.487,-3.319 -3.318,-3.319 h -42.996 c -1.832,0 -3.319,1.487 -3.319,3.319 v 6.638 c 0,1.831 1.487,3.318 3.319,3.318 h 42.996 c 1.831,0 3.318,-1.487 3.318,-3.318 z"
         style="fill:#ffffff"
         id="path1024" /></g><g
       id="g1036"
       style="clip-rule:evenodd;display:inline;fill-rule:evenodd;stroke-linecap:round;stroke-linejoin:round;stroke-miterlimit:1.5"
       transform="matrix(0.35398137,0,0,0.25592043,158.32106,-36.896567)"><path
         d="m 829.212,2015.97 v 63.409 h -268.51 v -63.409 h 196.883 v -48.002 h -133.77 v -49.401 h 196.93 L 784.15,714.987 h -41.578 l 25.071,1143.84 h -59.78 V 714.987 h -42.031 l -16.106,1143.84 h -51.314 l 25.403,-1143.84 -25.403,-53.128 h 230.8 v -49.248 c 0,0 -199.154,-1.314 -230.8,0 -21.283,0.883 -100.489,0 -100.489,0 v 49.248 h 70.1 v -98.266 h 324.089"
         style="fill:none;stroke:#ff9f1c;stroke-width:22.58px"
         id="path1028" /><rect
         x="749.37701"
         y="509.327"
         width="142.73399"
         height="54.265999"
         style="fill:#ff9f1c;stroke:#ff9f1c;stroke-width:18.82px"
         id="rect1030" /><ellipse
         cx="860.44"
         cy="519.35901"
         rx="9.4309998"
         ry="10.032"
         style="fill:#ffffff"
         id="ellipse1032" /><path
         d="m 903.618,548.544 c 0,-1.606 -1.303,-2.91 -2.909,-2.91 h -37.696 c -1.606,0 -2.91,1.304 -2.91,2.91 v 5.819 c 0,1.606 1.304,2.91 2.91,2.91 h 37.696 c 1.606,0 2.909,-1.304 2.909,-2.91 z"
         style="fill:#ffffff"
         id="path1034" /></g><text
       xml:space="preserve"
       style="font-size:180.59px;line-height:1.25;font-family:'Caesar Dressing';-inkscape-font-specification:'Caesar Dressing';display:inline;fill:#5555ff;stroke-width:0.300984"
       x="273.7099"
       y="442.52982"
       id="text1611"
       transform="scale(1.1760823,0.85028062)"><tspan
         sodipodi:role="line"
         id="tspan1609"
         x="273.7099"
         y="442.52982"
         style="font-size:180.59px;fill:#5555ff;stroke-width:0.300984">Pytanis</tspan></text></g></svg>
