<?xml version="1.0" encoding="UTF-8" standalone="no"?><!DOCTYPE svg PUBLIC "-//W3C//DTD SVG 1.1//EN" "http://www.w3.org/Graphics/SVG/1.1/DTD/svg11.dtd"><svg width="100%" height="100%" viewBox="0 0 2800 2855" version="1.1" xmlns="http://www.w3.org/2000/svg" xmlns:xlink="http://www.w3.org/1999/xlink" xml:space="preserve" xmlns:serif="http://www.serif.com/" style="fill-rule:evenodd;clip-rule:evenodd;stroke-linecap:round;stroke-linejoin:round;stroke-miterlimit:1.5;"><rect id="LogoWhite" x="0.087" y="2.92" width="2796.72" height="2849" style="fill:none;"/><g><path d="M2471.37,640.079c0,-246.72 -200.305,-447.026 -447.025,-447.026l-1384.55,0c-246.72,0 -447.025,200.306 -447.025,447.026l-0,1465.38c-0,246.72 200.305,447.025 447.025,447.025l1384.55,-0c246.72,-0 447.025,-200.305 447.025,-447.025l0,-1465.38Z" style="fill:#fff;"/><g><g><path d="M1902.11,2032.41l0,66.496l281.582,-0l-0,-66.496l-206.468,0l0,-50.339l140.282,0l-0,-51.806l-206.517,0l38.377,-1262.17l43.601,0l-26.291,1199.53l62.69,-0l-0,-1199.53l44.077,0l16.891,1199.53l53.812,-0l-26.64,-1199.53l26.64,-55.714l-242.036,-0l0,-51.647c0,0 208.849,-1.378 242.036,0c22.319,0.927 105.38,0 105.38,0l0,51.647l-73.512,-0l0,-103.05l-339.866,-0" style="fill:none;stroke:#e71d36;stroke-width:23.68px;"/><rect x="1836.15" y="452.419" width="149.683" height="56.907" style="fill:#e71d36;stroke:#e71d36;stroke-width:19.73px;"/><ellipse cx="1869.37" cy="462.94" rx="9.89" ry="10.521" style="fill:#fff;"/><path d="M1824.29,493.546c-0,-1.684 1.367,-3.051 3.051,-3.051l39.531,-0c1.684,-0 3.051,1.367 3.051,3.051l0,6.103c0,1.684 -1.367,3.051 -3.051,3.051l-39.531,-0c-1.684,-0 -3.051,-1.367 -3.051,-3.051l-0,-6.103Z" style="fill:#fff;"/></g></g><g><path d="M1468.93,2322.28l0,72.324l-306.263,0l-0,-72.324l224.565,-0l0,-54.751l-152.578,-0l0,-56.347l224.619,-0l-41.74,-1372.81l-47.424,-0l28.596,1304.67l-68.185,-0l0,-1304.67l-47.941,-0l-18.371,1304.67l-58.529,-0l28.975,-1304.67l-28.975,-60.598l263.251,-0l0,-56.174c0,0 -227.155,-1.498 -263.251,0c-24.275,1.008 -114.617,0 -114.617,0l-0,56.174l79.955,-0l0,-112.083l369.658,-0" style="fill:none;stroke:#2ec4b6;stroke-width:25.75px;"/><rect x="1377.88" y="603.801" width="162.804" height="61.896" style="fill:#2ec4b6;stroke:#2ec4b6;stroke-width:21.46px;"/><ellipse cx="1504.55" cy="615.244" rx="10.757" ry="11.443" style="fill:#fff;"/><path d="M1553.22,648.533c0,-1.832 -1.487,-3.319 -3.318,-3.319l-42.996,0c-1.832,0 -3.319,1.487 -3.319,3.319l-0,6.638c-0,1.831 1.487,3.318 3.319,3.318l42.996,0c1.831,0 3.318,-1.487 3.318,-3.318l0,-6.638Z" style="fill:#fff;"/></g><g><path d="M829.212,2015.97l-0,63.409l-268.51,-0l-0,-63.409l196.883,0l-0,-48.002l-133.77,0l0,-49.401l196.93,0l-36.595,-1203.58l-41.578,0l25.071,1143.84l-59.78,-0l0,-1143.84l-42.031,0l-16.106,1143.84l-51.314,-0l25.403,-1143.84l-25.403,-53.128l230.8,0l-0,-49.248c-0,-0 -199.154,-1.314 -230.8,-0c-21.283,0.883 -100.489,-0 -100.489,-0l0,49.248l70.1,0l-0,-98.266l324.089,0" style="fill:none;stroke:#ff9f1c;stroke-width:22.58px;"/><rect x="749.377" y="509.327" width="142.734" height="54.266" style="fill:#ff9f1c;stroke:#ff9f1c;stroke-width:18.82px;"/><ellipse cx="860.44" cy="519.359" rx="9.431" ry="10.032" style="fill:#fff;"/><path d="M903.618,548.544c0,-1.606 -1.303,-2.91 -2.909,-2.91l-37.696,0c-1.606,0 -2.91,1.304 -2.91,2.91l0,5.819c0,1.606 1.304,2.91 2.91,2.91l37.696,0c1.606,0 2.909,-1.304 2.909,-2.91l0,-5.819Z" style="fill:#fff;"/></g></g></svg>
