<?xml version="1.0" encoding="UTF-8" standalone="no"?>
<svg
   xmlns:dc="http://purl.org/dc/elements/1.1/"
   xmlns:cc="http://creativecommons.org/ns#"
   xmlns:rdf="http://www.w3.org/1999/02/22-rdf-syntax-ns#"
   xmlns:svg="http://www.w3.org/2000/svg"
   xmlns="http://www.w3.org/2000/svg"
   xmlns:sodipodi="http://sodipodi.sourceforge.net/DTD/sodipodi-0.dtd"
   xmlns:inkscape="http://www.inkscape.org/namespaces/inkscape"
   width="600"
   height="660"
   viewBox="0 0 158.75 174.62499"
   version="1.1"
   id="svg4355"
   inkscape:version="1.0 (4035a4f, 2020-05-01)"
   sodipodi:docname="logo.svg">
  <defs
     id="defs4349" />
  <sodipodi:namedview
     id="base"
     pagecolor="#ffffff"
     bordercolor="#666666"
     borderopacity="1.0"
     inkscape:pageopacity="0.0"
     inkscape:pageshadow="2"
     inkscape:zoom="0.35"
     inkscape:cx="394.28571"
     inkscape:cy="200"
     inkscape:document-units="px"
     inkscape:current-layer="layer1"
     inkscape:document-rotation="0"
     showgrid="false"
     units="px"
     inkscape:window-width="1252"
     inkscape:window-height="1174"
     inkscape:window-x="1182"
     inkscape:window-y="153"
     inkscape:window-maximized="0" />
  <metadata
     id="metadata4352">
    <rdf:RDF>
      <cc:Work
         rdf:about="">
        <dc:format>image/svg+xml</dc:format>
        <dc:type
           rdf:resource="http://purl.org/dc/dcmitype/StillImage" />
        <dc:title></dc:title>
      </cc:Work>
    </rdf:RDF>
  </metadata>
  <g
     inkscape:label="Layer 1"
     inkscape:groupmode="layer"
     id="layer1">
    <g
       id="g5026"
       transform="translate(1.1339286,-17.496261)">
      <g
         style="clip-rule:evenodd;fill-rule:evenodd;stroke-linecap:round;stroke-linejoin:round;stroke-miterlimit:1.5"
         id="g4330"
         transform="matrix(0.2159872,0,0,0.2159872,-58.761516,215.59657)">
        <g
           transform="matrix(0.35838174,0,0,0.30281174,151.88376,-977.28132)"
           style="clip-rule:evenodd;display:inline;fill-rule:evenodd;stroke-linecap:round;stroke-linejoin:round;stroke-miterlimit:1.5"
           id="g1036-1-4">
          <path
             id="path1028-3-1"
             style="fill:none;stroke:#ff9f1c;stroke-width:22.58px"
             d="m 829.212,2015.97 v 63.409 h -268.51 v -63.409 h 196.883 v -48.002 h -133.77 v -49.401 h 196.93 L 784.15,714.987 h -41.578 l 25.071,1143.84 h -59.78 V 714.987 h -42.031 l -16.106,1143.84 h -51.314 l 25.403,-1143.84 -25.403,-53.128 h 230.8 v -49.248 c 0,0 -199.154,-1.314 -230.8,0 -21.283,0.883 -100.489,0 -100.489,0 v 49.248 h 70.1 v -98.266 h 324.089" />
          <rect
             id="rect1030-7-8"
             style="fill:#ff9f1c;stroke:#ff9f1c;stroke-width:18.82px"
             height="54.265999"
             width="142.73399"
             y="509.327"
             x="749.37701" />
          <ellipse
             id="ellipse1032-8-8"
             style="fill:#ffffff"
             ry="10.032"
             rx="9.4309998"
             cy="519.35901"
             cx="860.44" />
          <path
             id="path1034-8-3"
             style="fill:#ffffff"
             d="m 903.618,548.544 c 0,-1.606 -1.303,-2.91 -2.909,-2.91 h -37.696 c -1.606,0 -2.91,1.304 -2.91,2.91 v 5.819 c 0,1.606 1.304,2.91 2.91,2.91 h 37.696 c 1.606,0 2.909,-1.304 2.909,-2.91 z" />
        </g>
        <g
           transform="matrix(-0.35838174,0,0,0.30281174,1116.7339,-977.28132)"
           style="clip-rule:evenodd;display:inline;fill-rule:evenodd;stroke-linecap:round;stroke-linejoin:round;stroke-miterlimit:1.5"
           id="g1036-9-3-3-5">
          <path
             id="path1028-3-7-8-2"
             style="fill:none;fill-rule:evenodd;stroke:#e71d36;stroke-width:22.58px;stroke-opacity:1"
             d="m 829.212,2015.97 v 63.409 h -268.51 v -63.409 h 196.883 v -48.002 h -133.77 v -49.401 h 196.93 L 784.15,714.987 h -41.578 l 25.071,1143.84 h -59.78 V 714.987 h -42.031 l -16.106,1143.84 h -51.314 l 25.403,-1143.84 -25.403,-53.128 h 230.8 v -49.248 c 0,0 -199.154,-1.314 -230.8,0 -21.283,0.883 -100.489,0 -100.489,0 v 49.248 h 70.1 v -98.266 h 324.089" />
          <rect
             id="rect1030-8-9-1-2"
             style="fill:#e71d36;fill-opacity:1;fill-rule:evenodd;stroke:#e71d36;stroke-width:18.82px;stroke-opacity:1"
             height="54.265999"
             width="142.73399"
             y="509.327"
             x="749.37701" />
          <ellipse
             id="ellipse1032-0-0-5-6"
             style="fill:#ffffff;fill-rule:evenodd"
             ry="10.032"
             rx="9.4309998"
             cy="519.35901"
             cx="860.44" />
          <path
             id="path1034-2-2-3-6"
             style="fill:#ffffff;fill-rule:evenodd"
             d="m 903.618,548.544 c 0,-1.606 -1.303,-2.91 -2.909,-2.91 h -37.696 c -1.606,0 -2.91,1.304 -2.91,2.91 v 5.819 c 0,1.606 1.304,2.91 2.91,2.91 h 37.696 c 1.606,0 2.909,-1.304 2.909,-2.91 z" />
        </g>
        <g
           id="g1026-5-7"
           style="clip-rule:evenodd;display:inline;fill-rule:evenodd;stroke-linecap:round;stroke-linejoin:round;stroke-miterlimit:1.5"
           transform="matrix(0.35838174,0,0,0.30281174,162.72556,-1040.2814)">
          <path
             d="m 1468.93,2322.28 v 72.324 h -306.263 v -72.324 h 224.565 v -54.751 h -152.578 v -56.347 h 224.619 l -41.74,-1372.81 h -47.424 l 28.596,1304.67 H 1330.52 V 838.372 h -47.941 l -18.371,1304.67 h -58.529 l 28.975,-1304.67 -28.975,-60.598 H 1468.93 V 721.6 c 0,0 -227.155,-1.498 -263.251,0 -24.275,1.008 -114.617,0 -114.617,0 v 56.174 h 79.955 V 665.691 h 369.658"
             style="fill:none;stroke:#2ec4b6;stroke-width:25.75px"
             id="path1018-4-8" />
          <rect
             x="1377.88"
             y="603.80103"
             width="162.804"
             height="61.896"
             style="fill:#2ec4b6;stroke:#2ec4b6;stroke-width:21.46px"
             id="rect1020-3-4" />
          <ellipse
             cx="1504.55"
             cy="615.24402"
             rx="10.757"
             ry="11.443"
             style="fill:#ffffff"
             id="ellipse1022-6-1" />
          <path
             d="m 1553.22,648.533 c 0,-1.832 -1.487,-3.319 -3.318,-3.319 h -42.996 c -1.832,0 -3.319,1.487 -3.319,3.319 v 6.638 c 0,1.831 1.487,3.318 3.319,3.318 h 42.996 c 1.831,0 3.318,-1.487 3.318,-3.318 z"
             style="fill:#ffffff"
             id="path1024-5-7" />
        </g>
      </g>
      <g
         aria-label="Pytanis"
         transform="matrix(0.25401873,0,0,0.18364973,-60.936169,99.57503)"
         id="text1611-2-2"
         style="font-size:180.59px;line-height:1.25;font-family:'Caesar Dressing';-inkscape-font-specification:'Caesar Dressing';clip-rule:evenodd;display:inline;fill:#4381b3;fill-opacity:1;fill-rule:evenodd;stroke-width:0.300984;stroke-linecap:round;stroke-linejoin:round;stroke-miterlimit:1.5">
        <path
           d="m 291.03689,299.87007 q 0.70543,-0.17636 1.23451,-0.52908 0.52907,-0.35271 1.2345,-0.35271 0.52907,0.17636 0.70543,0.70543 0.35271,0.52907 0.88178,0.88179 0.52908,-0.35272 0.88179,-0.70543 0.52907,-0.35272 1.05815,-0.52908 1.76357,0.52908 1.93993,1.76358 0.88178,0.35271 1.58721,0.88179 0.70543,0.35271 1.58722,0.52907 0.35272,0.70543 0.88179,1.05814 0.52907,0.35272 1.2345,1.05815 1.76357,0.35271 4.58529,1.93993 2.99808,1.58721 4.76165,2.469 1.76358,0.88179 3.52715,1.76358 1.76358,0.88178 3.35079,1.93993 1.58722,0.88178 3.17444,2.11629 1.58721,1.05814 3.35079,1.76357 1.58721,1.93993 4.05622,2.469 2.469,0.52908 4.40893,1.93994 1.58722,0.88178 2.99808,1.93993 1.41086,0.88178 2.82172,1.76357 0.52907,0.88179 1.2345,1.41086 0.88179,0.52907 1.58722,1.41086 3.52715,1.93993 4.05622,2.99808 0.52907,0.35271 1.58721,1.05814 1.05815,0.70543 2.11629,1.58722 1.05815,0.70543 1.93993,1.58721 0.88179,0.70543 1.05815,1.41086 -0.70543,1.58722 -0.70543,2.64537 0,0.88178 -0.70543,1.58721 1.05814,1.41086 1.05814,2.64536 -0.88178,2.11629 -2.99807,3.52715 -0.52907,1.41086 -1.76358,2.29265 -1.05814,0.70543 -1.41086,2.11629 -1.41085,0.88178 -1.76357,1.41086 -0.17636,0.52907 -0.52907,1.05814 -3.35079,3.52715 -6.34887,6.17251 -2.82172,2.469 -5.29072,5.46708 -1.76358,0.88179 -2.99808,2.29265 -1.2345,1.2345 -2.29264,2.82172 -1.41086,1.41086 -2.82172,2.82171 -1.2345,1.23451 -2.64536,2.46901 -0.35272,0.70543 -1.23451,1.2345 -0.70543,0.35272 -1.05814,1.2345 -1.93993,0.88179 -3.17443,2.46901 -1.23451,1.58721 -2.99808,2.64536 l -1.2345,1.76357 q -0.52907,0.35272 -1.58722,1.2345 -0.88179,0.70543 -1.93993,1.76358 -0.88179,0.88178 -1.58722,1.76357 -0.70543,0.88179 -0.88178,1.41086 -0.52908,0.17636 -1.76358,1.05815 -1.05814,0.88178 -2.29264,1.93993 -1.05815,1.05814 -2.11629,2.11629 -0.88179,1.05814 -1.05815,1.41086 l -1.76357,1.2345 q 0.17636,4.76165 0.17636,9.69966 0.17635,4.76165 0.17635,9.5233 v 5.99615 l -1.2345,1.58722 q -0.88179,0 -1.41086,-0.35272 -0.52907,-0.35271 -1.2345,-0.35271 -0.70543,0 -1.41086,0.70543 -0.52907,0.70542 -1.05814,1.05814 -1.23451,0.17636 -2.11629,0.70543 -0.70543,0.35271 -1.58722,0.70543 -1.05814,-0.52907 -2.11629,-0.52907 -2.29265,0.52907 -2.29265,0.17635 0.17636,-0.35271 -0.70543,-0.35271 -1.41085,1.41086 -1.76357,1.41086 -0.70543,0 -1.41086,0.17636 -0.52907,0.17635 -1.2345,0.17635 -0.70543,-1.41086 -1.2345,-2.82172 -0.35272,-1.58721 -1.58722,-2.99807 0.52907,-1.76358 -0.17636,-2.469 1.05815,-1.93994 0.88179,-4.40894 -0.17636,-2.469 -0.17636,-4.58529 0,-1.23451 0,-2.29265 0.17636,-1.2345 0.17636,-2.29265 0,-2.11629 -0.35271,-4.23257 -0.35272,-2.29265 -0.35272,-4.5853 0,-5.29072 0.35272,-10.58144 0.35271,-5.46708 0.35271,-10.7578 0,-2.99808 -0.35271,-6.17251 -0.17636,-3.17444 -0.17636,-6.17251 0,-1.93994 0.17636,-3.52715 0.17635,-1.76358 0.35271,-3.35079 0,-8.11244 0.17636,-15.51946 0.35271,-7.58337 0.35271,-14.99038 0,-2.469 -0.17635,-4.58529 0,-2.29265 0,-4.76165 0,-1.2345 0.17635,-2.469 0.17636,-1.23451 0.17636,-2.46901 0.52907,-5.46708 0.52907,-10.93416 l -0.17636,-2.82172 q 0.70543,-1.05814 2.11629,-1.05814 1.93994,0 2.99808,1.2345 1.2345,-0.17636 2.29265,-0.35271 1.2345,-0.35272 2.29264,-0.35272 1.58722,0 2.64536,1.05815 z m 10.40509,28.04083 q 0,0.88178 -0.17636,1.41085 -0.17635,0.35272 -0.35271,0.70543 0,0.52908 0,1.23451 0.17636,0.52907 0.17636,1.2345 0,4.05622 -0.17636,8.11244 0,3.87986 0,7.75973 l -0.35272,9.34694 q 0,0.88179 0.17636,1.93993 0.17636,1.05815 0.17636,1.93993 0,0.88179 -0.17636,1.76358 -0.17636,0.88178 -0.17636,1.76357 0,2.29265 0.52908,4.58529 0.88178,-0.35271 1.2345,-1.05814 0.35271,-0.88179 0.88179,-1.41086 4.05622,-3.70351 7.58336,-7.75973 3.52715,-4.05622 7.23066,-8.11244 3.17443,-3.35079 5.46708,-5.46708 2.29265,-2.11629 3.52715,-5.11436 -2.99808,-1.93993 -6.17251,-3.87987 -3.17444,-2.11629 -6.70158,-3.52714 -0.17636,-0.35272 -1.05815,-0.88179 -0.70543,-0.52907 -1.58722,-0.88179 -0.88178,-0.52907 -1.76357,-0.88179 -0.88179,-0.35271 -1.2345,-0.35271 -1.58722,-1.41086 -3.35079,-1.76357 -1.2345,0 -2.11629,-0.35272 -0.88179,-0.52907 -1.2345,-0.88179 z"
           style="font-size:180.59px;fill:#4381b3;fill-opacity:1;stroke-width:0.300984"
           id="path897-7" />
        <path
           d="m 437.58991,303.22086 q -1.93993,3.52715 -4.40894,8.2888 -2.469,4.76165 -3.87986,8.28879 -0.52907,1.23451 -1.05814,2.46901 -0.35272,1.05814 -0.88179,2.29264 -0.88179,2.64537 -2.29265,5.11437 -1.2345,2.29265 -2.29264,4.93801 -1.58722,3.52715 -3.35079,7.23065 -1.58722,3.52715 -3.17444,7.40701 -1.76357,3.52715 -2.82172,6.17251 -0.88178,2.46901 -1.93993,5.11437 -1.05814,2.64536 -1.93993,5.29072 -0.70543,2.469 -1.2345,4.58529 -1.58722,2.82172 -2.64536,4.23258 -0.35272,3.17443 -0.70543,6.34887 -0.35272,3.17443 -0.35272,6.52522 0,1.58722 0.17636,3.17444 0.35272,1.41086 0.52907,2.99807 0.17636,2.29265 0,4.5853 0,2.11628 0.17636,4.40893 0.17636,4.40894 0.35272,8.81787 0.35271,4.23258 0.52907,8.81787 0.17635,3.17444 -0.35272,5.46708 -0.35271,2.11629 -0.17635,4.40894 -0.52908,0.35271 -1.23451,0.52907 -0.52907,0.17636 -1.05814,0.52907 -1.93993,0 -2.64536,-0.17635 -0.52907,0 -1.05815,0.35271 -1.58721,-1.05814 -1.76357,-1.05814 -0.17636,0.17635 -0.35272,0.17635 -2.11629,-0.70543 -2.29264,-1.05814 -0.17636,-0.35272 -0.70543,-0.70543 -1.93993,0 -3.17444,0.52907 -0.52907,-0.35271 -0.88178,-0.70543 -0.35272,-0.35271 -0.88179,-0.70543 -1.58722,-0.17636 -2.64536,-0.35271 -1.05815,-0.35272 -1.76358,-0.70543 -0.52907,-1.41086 -1.2345,-2.46901 -0.52907,-1.05814 -0.52907,-2.82172 0,-1.41085 0.35272,-2.64536 0.35271,-1.2345 0.52907,-2.64536 0,-0.88178 -0.17636,-1.58721 0,-0.70543 0,-1.58722 0,-0.88179 0.35271,-2.29265 -0.52907,-4.05622 -0.52907,-8.46515 0.17636,-4.5853 0.17636,-8.64152 0,-4.05622 -0.70543,-7.58337 0.17636,-2.29264 0,-3.17443 -0.17636,-1.05814 -0.17636,-2.11629 0,-0.88179 0.17636,-1.76357 0.17636,-1.05815 0.17636,-1.93993 0,-0.17636 -0.35272,-1.76358 -0.17635,-1.76357 -0.52907,-3.52715 -0.35271,-1.93993 -0.70543,-3.52715 -0.35271,-1.76357 -0.35271,-2.11628 -1.76358,-3.17444 -2.64537,-5.99616 -0.88178,-2.82172 -1.93993,-4.76165 -0.70543,-1.41086 -1.41086,-2.82172 -0.70543,-1.41086 -1.2345,-2.99807 -0.35271,-0.88179 -0.70543,-1.93993 -0.17636,-1.05815 -0.52907,-1.93994 -0.70543,-1.41085 -1.41086,-2.99807 -0.52907,-1.76358 -1.41086,-2.82172 -0.70543,-1.58722 -1.41086,-2.82172 -0.52907,-1.41086 -0.52907,-2.64536 -0.52907,-2.11629 -1.76357,-3.70351 -1.05815,-1.76357 -1.93994,-3.52714 -0.52907,-1.05815 -0.88178,-1.93994 -0.17636,-0.88178 -0.52908,-1.76357 -0.35271,-0.70543 -1.05814,-1.76357 -0.52907,-1.05815 -1.2345,-1.58722 -0.35272,-1.58722 -1.2345,-2.82172 -0.88179,-1.2345 -1.23451,-2.82172 -0.88178,-1.2345 -1.93993,-2.469 -0.70543,-2.64536 -1.93993,-4.76165 -1.2345,-2.29265 -2.29265,-4.76165 0.70543,-3.70351 4.05623,-4.5853 1.76357,-2.11628 2.11628,-2.29264 0.35272,-0.17636 1.58722,-0.17636 1.05815,-0.88179 2.11629,-1.41086 1.05814,-0.70543 2.469,-0.35271 0.17636,-0.70543 0.88179,-1.23451 0.88179,-0.52907 1.58722,-0.52907 1.05814,0 1.76357,1.05815 0.88179,1.05814 1.76358,1.58721 1.41086,2.46901 2.82171,4.76165 1.58722,2.29265 2.64537,4.76165 1.2345,2.46901 2.11629,4.93801 1.05814,2.46901 2.99807,4.76165 0.88179,3.52715 2.64536,6.70158 1.93993,2.99808 3.17444,6.52523 0.88178,2.11629 1.93993,4.23258 1.2345,1.93993 2.11629,4.23257 0.52907,1.05815 0.88178,2.11629 0.35272,1.05815 0.70543,2.11629 0.35272,0.88179 0.70543,2.29265 0.35272,1.41086 0.88179,2.29265 1.2345,-1.23451 2.11629,-3.17444 1.2345,-2.469 2.469,-4.58529 1.41086,-2.29265 2.46901,-4.76165 1.41086,-2.29265 1.93993,-4.76165 0.70543,-2.46901 1.58722,-4.93801 0.35271,-0.88179 0.70543,-1.76357 0.52907,-0.88179 0.88178,-1.93994 0.52907,-1.05814 0.88179,-2.11628 0.35271,-1.05815 0.70543,-2.11629 1.2345,-3.35079 2.64536,-6.52523 1.58722,-3.35079 3.17443,-6.70158 0.17636,-0.52907 0.70543,-1.58722 0.70543,-1.05814 1.41086,-2.11629 0.88179,-1.2345 1.58722,-2.11628 0.70543,-0.88179 1.2345,-1.23451 0.35272,-0.35271 1.05815,-0.35271 0.88178,-0.17636 1.41086,-0.35272 1.58721,0 2.29264,0.88179 2.11629,0.88179 3.17444,1.2345 1.05814,0.35272 1.58721,1.58722 2.64536,1.76357 3.87987,2.11629 1.41085,0.17636 2.11628,1.41086 1.93994,1.2345 2.29265,1.76357 0.35272,0.52907 0.70543,1.05815 z"
           style="font-size:180.59px;fill:#4381b3;fill-opacity:1;stroke-width:0.300984"
           id="path899-0" />
        <path
           d="m 518.71431,301.98636 q -0.35271,0.70542 -0.35271,1.41085 0.17636,0.70543 0.17636,1.58722 -0.35272,2.11629 0,2.11629 0.35271,0 0.35271,0.35272 l -1.2345,1.76357 q 0,1.05814 -0.52907,1.93993 -0.35272,0.88179 -0.17636,2.11629 -0.52907,0.88179 -1.05814,1.76357 -0.35272,0.88179 -1.23451,1.76358 h -2.29264 q -1.93993,0 -4.23258,0.35271 -2.11629,0.17636 -4.23258,0.17636 -0.35271,0 -0.88179,0 -0.52907,-0.17636 -1.05814,-0.17636 -0.35271,0 -0.88179,0.17636 -0.52907,0 -1.2345,0 -2.64536,0 -5.29072,-0.17636 -2.46901,-0.35271 -5.29072,-0.35271 -0.70543,0 -1.41086,0 -0.70543,0 -1.58722,0.17636 -0.17636,2.99807 -0.35272,6.17251 0,2.99807 0,6.1725 0,0.88179 -0.17635,1.93994 -0.17636,0.88178 -0.17636,1.76357 -0.17636,2.29265 -0.35271,4.40894 0,2.11629 0,4.40893 0,4.93801 0,9.87602 0.17635,4.938 0.35271,10.05237 0.17636,2.64536 0.35271,5.11437 0.17636,2.469 0.17636,5.11436 0,5.99615 -0.17636,11.9923 -0.17635,5.8198 -0.17635,11.81595 0,1.93993 -0.17636,3.70351 -0.17636,1.58721 -0.17636,3.52715 0,4.05622 0.17636,8.11244 0.17636,4.05622 0.17636,8.11244 0,1.93993 -0.17636,3.87986 0,1.93993 0,3.87986 -0.88179,1.41086 -1.2345,2.46901 -0.35272,1.05814 -2.11629,1.05814 -1.2345,-0.35271 -1.2345,-0.88178 0.17635,-0.35272 -0.17636,-0.70543 -1.58722,-0.17636 -2.469,0.17635 -0.70543,0.52908 -1.76358,0.88179 -0.52907,-0.17636 -1.2345,-0.17636 -0.52907,0 -1.05814,0 -0.35272,0 -0.70543,0.17636 -0.35272,0.35272 -1.58722,0.35272 -1.05815,0.17635 -1.2345,-0.35272 -0.17636,-0.52907 -1.05815,-0.52907 -0.88178,0.52907 -2.11629,0.70543 -1.05814,0.35271 -2.11629,0.35271 -1.05814,-0.70543 -1.05814,-1.41086 0.17636,-0.52907 -0.17636,-1.2345 -0.17635,-0.35271 -0.70543,-0.88179 -0.35271,-0.70543 -0.70543,-1.05814 0.35272,-2.469 0.52908,-4.40894 0.17635,-1.93993 0.17635,-4.23257 0,-4.5853 -0.35271,-8.99423 -0.35272,-4.40894 -0.35272,-8.99423 0,-1.41086 0.35272,-2.99808 0.35271,-1.58721 0.35271,-3.35079 -0.35271,-1.41086 -0.17635,-1.58721 0.17635,-0.35272 0.17635,-0.70543 0,-1.05815 -0.17635,-2.11629 0,-1.05815 0,-2.11629 0,-2.11629 0,-4.23258 0.17635,-2.11629 0.17635,-4.23258 0,-0.88178 -0.17635,-1.76357 0,-1.05815 0,-1.93993 -0.17636,-1.58722 -0.17636,-3.35079 0.17636,-1.76358 0.17636,-3.52715 0,-8.46516 -0.35272,-16.75396 -0.17636,-8.2888 -0.17636,-16.75395 0,-4.23258 0.35272,-8.2888 0.52907,-4.23258 0.52907,-8.46516 0,-0.52907 -0.35271,-1.41086 -0.35272,-0.88178 -0.70543,-1.2345 -0.88179,0 -1.76358,0 -0.70543,-0.17636 -1.58722,-0.17636 -1.93993,0 -3.7035,0.52908 -3.35079,0.17635 -6.52523,0.52907 -2.99807,0.17636 -6.17251,0.35271 -2.11628,-0.17635 -2.64536,0 -0.35271,0 -0.88178,0 -1.41086,0 -2.11629,-0.70543 v -2.29264 q -1.05815,-2.11629 -0.88179,-2.29265 0.17636,-0.17636 0.17636,-0.52907 0,-0.52907 -0.88179,-1.05815 -1.05814,-0.70543 -1.05814,-2.11628 -0.17636,-1.41086 -0.70543,-2.11629 -0.52908,-0.70543 -0.52908,-1.41086 0,-1.2345 0.52908,-2.82172 1.58721,-0.88179 2.99807,-1.2345 1.58722,-0.35272 3.52715,-0.88179 1.05815,-0.35272 1.93993,-0.70543 0.88179,-0.35272 1.93993,-0.52907 1.23451,-0.17636 2.46901,-0.17636 1.2345,0 2.469,-0.17636 2.64536,-0.52907 5.46708,-0.88178 2.99808,-0.35272 5.64344,-0.35272 2.469,0 4.93801,0.70543 2.469,0.52907 4.40893,0.52907 2.82172,0 5.29072,0.35272 2.64537,0.35271 5.46708,0.35271 0.35272,0 1.05815,0.35272 0.88179,0.17635 1.93993,0.17635 h 17.10667 q 1.41086,0.35272 1.93993,0.17636 0.70543,-0.17636 1.2345,-0.17636 1.41086,0 2.64537,0.17636 1.2345,0.17636 2.64536,0.17636 1.2345,0 1.93993,-0.17636 1.41086,0.17636 2.64536,0.88179 1.2345,0.52907 2.82172,0.52907 0.70543,0.52907 1.05814,1.41086 0.35272,0.70543 1.2345,1.05815 z"
           style="font-size:180.59px;fill:#4381b3;fill-opacity:1;stroke-width:0.300984"
           id="path901-3" />
        <path
           d="m 563.50911,294.57934 q 0.88178,3.17444 1.76357,6.34887 0.88179,2.99808 2.11629,5.99615 2.64536,0.35272 3.17443,0.52908 0.70543,0.17635 1.58722,0.52907 1.93993,4.58529 2.29265,9.87601 0.52907,5.11437 1.41086,10.05238 3.35079,4.40893 4.76165,9.5233 1.58721,4.938 3.52714,10.05237 0.52908,1.76357 0.70543,2.29265 0.17636,0.35271 0.17636,0.70543 1.05815,2.99807 2.11629,6.1725 1.05815,3.17444 2.29265,6.17251 0.52907,1.58722 1.05814,3.17444 0.70543,1.41086 1.2345,2.82172 0.52908,1.76357 0.88179,3.7035 0.52907,1.76358 1.05815,3.52715 1.2345,3.52715 2.64536,7.0543 1.41086,3.52715 2.82172,7.05429 0.52907,1.23451 1.93993,5.46708 1.58721,4.23258 3.17443,8.99423 1.58722,4.5853 2.82172,8.64152 1.41086,3.87986 1.41086,4.76165 0,1.41086 0.17636,2.99807 0.35271,1.41086 0.52907,2.99808 -0.70543,1.76357 -1.76358,1.93993 -1.05814,0.17636 -1.93993,-0.17636 -0.88178,0.35272 -1.76357,0.70543 -0.70543,0.35272 -1.41086,0.70543 -0.52907,0.17636 -0.88179,0.52907 -0.35271,0.35272 -0.88179,0.35272 -2.11628,0 -2.82171,0.35271 -0.52908,0.52908 -1.76358,0.52908 -1.58722,-0.52908 -2.11629,-0.17636 -0.35271,0.52907 -0.70543,0.70543 -0.70543,0.35271 -1.58721,0.35271 -0.88179,0 -1.76358,0.17636 -0.35271,-0.70543 -0.70543,-1.41086 -0.17636,-0.70543 -0.70543,-1.58722 -1.93993,-2.82171 -2.82172,-5.46708 -0.70543,-2.64536 -1.2345,-4.23257 -0.88179,-1.93993 -1.58721,-3.87987 -0.52908,-1.93993 -1.41086,-3.87986 -1.05815,0.35272 -1.93994,0.88179 -0.88178,0.35271 -1.41085,1.05814 -2.11629,0 -2.11629,0.52907 0,0.52908 -0.35272,1.05815 -1.05814,0.35271 -1.76357,0.70543 -0.52908,0.35271 -1.93993,0.17636 -0.88179,0.88178 -1.76358,1.58721 -0.88179,0.52907 -2.29265,0.70543 -1.41085,1.41086 -2.99807,2.46901 -1.41086,0.88178 -3.35079,0.35271 -2.46901,0.52907 -4.93801,1.05815 -2.469,0.35271 -4.93801,0.35271 -2.82172,-0.88179 -3.52715,-1.58722 -0.70543,-0.70543 -2.11629,-0.70543 0.17636,-2.469 -1.05814,-3.35079 0,-0.52907 0,-1.58721 0.17636,-1.23451 0.52907,-1.58722 2.29265,-1.05815 2.64536,-2.29265 0.35272,-1.2345 1.93994,-1.58721 0.35271,-0.70543 0.70543,-1.23451 0.52907,-0.70543 0.88178,-1.41086 0.88179,-0.35271 1.41086,-0.52907 0.70543,-0.17635 1.05815,-1.05814 0.88178,0 2.64536,-1.05815 1.76357,-1.2345 2.29264,-1.93993 1.41086,-0.52907 1.76358,-0.88179 0.35271,-0.52907 0.88179,-0.88178 1.76357,0.17636 2.29264,-0.35272 1.41086,0.70543 3.17444,0.70543 0.70542,0 1.2345,0 0.52907,-0.17635 1.2345,-0.17635 1.41086,-1.41086 3.52715,-1.76358 2.29264,-0.52907 3.7035,-1.93993 -0.52907,-1.41086 -0.88178,-3.35079 -0.35272,-2.11629 -1.23451,-3.35079 -0.35271,-2.29265 -1.2345,-4.40894 -0.70543,-2.11629 -1.2345,-4.05622 -1.93993,-7.40701 -4.58529,-14.46131 -2.64536,-7.05429 -4.40894,-14.46131 -0.35271,-0.88178 -0.88179,-1.76357 -0.35271,-1.05814 -0.70542,-1.93993 -0.88179,2.11629 -0.88179,2.469 0,0.17636 -0.35272,0.52908 -0.17635,0.88178 -0.35271,1.58721 -0.17636,0.52907 -0.52907,1.41086 -0.52908,1.41086 -1.05815,3.17443 -0.35271,1.58722 -0.70543,2.99808 -0.88179,2.99808 -1.58721,6.34887 -0.70543,3.17443 -1.58722,6.34886 -1.76358,5.46708 -3.70351,10.93416 -1.76357,5.29073 -3.52715,10.75781 -0.35271,2.469 -0.88178,3.87986 -0.35272,1.2345 -0.88179,2.64536 -0.35271,1.2345 -0.70543,2.46901 -0.17636,1.2345 -0.17636,1.93993 -2.469,5.64343 -4.23258,11.46323 -1.58721,5.81979 -4.05622,11.28687 -0.70543,0.35272 -1.2345,0.88179 -0.52907,0.52907 -1.2345,0.52907 -1.41086,0 -1.58722,-0.70543 0,-0.70543 -0.70543,-0.70543 -0.70543,0 -1.2345,0.35272 -0.52907,0.17636 -1.05814,0.52907 -0.88179,-0.35271 -2.11629,-0.52907 -1.05815,0 -1.58722,-0.70543 -1.2345,0.88179 -2.469,0.88179 -1.41086,0 -2.82172,-0.88179 -1.05815,0.35271 -2.11629,0.35271 -0.52907,0 -1.2345,-0.17635 -0.70543,-0.17636 -1.05815,-0.52908 -0.17635,-0.70543 -0.17635,-1.41085 0,-0.70543 0,-1.58722 0,-1.76358 -0.35272,-2.64536 3.17444,-8.99423 6.17251,-18.16482 2.99808,-9.34694 5.99615,-18.87024 1.58722,-4.40894 2.99808,-8.64151 1.58722,-4.23258 2.99808,-8.64152 0.70543,-2.469 1.2345,-4.58529 0.52907,-2.29265 1.41086,-4.40894 1.41086,-4.58529 2.82172,-9.17058 1.58721,-4.76165 2.82171,-9.34694 0.70543,-0.52908 0.88179,-1.23451 0.17636,-0.70543 0.52907,-1.58721 l -0.17635,-2.29265 q 1.2345,-1.76357 1.58721,-2.99808 0.52908,-1.41086 0.70543,-2.82171 0.88179,-2.11629 1.58722,-4.5853 0.70543,-2.469 1.05814,-4.58529 0.35272,-2.82172 0.35272,-6.34887 0.17636,-3.7035 1.05814,-6.17251 0.35272,-0.70543 0.52908,-0.88178 0.35271,-0.35272 0.35271,-1.23451 0.35272,-0.35271 0.70543,-0.70543 0.52907,-0.52907 0.70543,-1.05814 0.88179,-1.41086 0.52907,-2.469 -0.17636,-1.05815 -0.17636,-2.29265 1.58722,-0.88179 1.41086,-1.58722 -0.17635,-0.70543 -0.17635,-1.41086 0,-0.88178 1.05814,-1.58721 1.2345,-0.88179 1.58722,-1.76358 1.05814,0.17636 2.11629,0.35272 1.05814,0 2.11629,-0.17636 1.2345,2.29265 2.99807,2.29265 z"
           style="font-size:180.59px;fill:#4381b3;fill-opacity:1;stroke-width:0.300984"
           id="path903-9" />
        <path
           d="m 677.08329,296.51928 q 2.82172,-0.35272 4.23258,0.52907 1.58722,0.70543 3.17443,0.88178 0.88179,0.17636 1.76358,0.17636 1.05814,-0.17636 2.11629,-0.17636 2.29264,0 3.52714,0.52908 1.41086,0.52907 2.82172,2.29264 0.35272,0.35272 0.88179,1.05815 0.70543,0.52907 0.70543,1.05814 0,1.41086 -0.70543,2.46901 -0.70543,1.05814 -0.70543,2.99807 0,2.99808 0.70543,5.99615 0.70543,2.82172 0.88179,5.8198 0.88178,10.93416 0.88178,22.04468 0.17636,10.93416 0.17636,21.69196 0,1.41086 -0.17636,2.64536 0,1.05814 -0.70543,1.93993 v 2.29265 q -0.17635,4.58529 0.17636,9.34694 0.35272,4.58529 0.35272,9.17059 0,4.05622 -0.52908,8.11244 -0.35271,4.05622 -0.35271,8.2888 0,3.87986 0.52907,7.58337 0.52907,3.7035 0.52907,7.58337 -0.88178,1.58721 -1.05814,2.469 -0.17636,0.88179 -0.70543,1.58722 -0.52907,0.35271 -1.2345,0.17635 -0.52907,-0.17635 -0.88179,0.35272 -0.88179,1.05814 -1.2345,2.469 -0.35272,1.41086 -1.76358,2.29265 -0.35271,2.469 -1.93993,3.7035 -1.41086,1.41086 -2.11629,3.52715 -2.11629,0.17636 -2.99807,-0.17636 -0.70543,-0.35271 -1.58722,-0.70542 -0.17636,-2.99808 0,-4.40894 0.35272,-1.2345 0.35272,-2.64536 0,-1.76358 -0.88179,-2.64536 -0.88179,-0.88179 -1.2345,-2.29265 -1.93993,-1.2345 -2.64536,-1.58722 -0.70543,-0.52907 -1.23451,-1.2345 -1.05814,-1.41086 -1.76357,-2.99807 -0.70543,-1.58722 -1.58722,-2.99808 -2.469,-4.05622 -5.11436,-8.2888 -2.46901,-4.23258 -5.46708,-8.2888 -0.52907,-0.88178 -1.2345,-1.58721 -0.70543,-0.70543 -1.23451,-1.58722 -2.99807,-4.76165 -5.64343,-9.69966 -2.64536,-4.93801 -6.17251,-9.34694 -1.41086,-1.76358 -2.11629,-3.87987 -0.70543,-2.29264 -2.11629,-3.87986 -0.17636,0.88179 -0.17636,1.93993 0,1.05815 0,1.93993 0,5.99616 0.17636,11.99231 0.35271,5.81979 0.35271,11.81595 0,1.2345 -0.35271,2.29264 -0.17636,0.88179 -0.17636,2.11629 0,1.76358 0.17636,3.35079 0.17636,1.58722 0.17636,3.17444 0,1.93993 -0.17636,3.7035 0,1.76358 -0.17636,3.52715 -0.35271,2.29265 -0.88179,4.40894 -0.52907,1.93993 -0.52907,4.05622 0,1.2345 0.17636,2.29264 0.35271,1.05815 0.35271,1.93993 -1.2345,1.93994 -3.17443,1.93994 -1.76357,0 -2.99808,1.41086 -1.05814,-0.17636 -1.76357,0.17635 -0.52907,0.35272 -1.05814,0.35272 -0.70543,0 -1.23451,-0.17636 -0.35271,-0.17636 -0.88178,-0.17636 -0.88179,0 -1.76358,0.88179 -0.88178,0.88179 -1.76357,0.88179 -0.52907,0 -1.93993,-0.70543 -1.2345,-0.70543 -2.82172,-1.76358 -1.41086,-0.88178 -2.64536,-1.93993 -1.2345,-0.88179 -1.2345,-1.41086 -0.17636,-0.88179 -0.17636,-2.469 0,-2.11629 0.17636,-4.05622 0.35271,-2.11629 0.70542,-4.23258 0.52908,-5.99615 0.52908,-11.81595 0,-5.99615 0,-11.9923 0,-2.46901 0,-4.93801 0.17635,-2.469 0.17635,-4.93801 0,-5.81979 -0.52907,-11.63959 -0.35271,-5.99615 -0.35271,-11.81594 0,-4.05622 0.35271,-7.93609 0.35272,-4.05622 0.35272,-7.93608 0,-2.99808 -0.17636,-5.8198 -0.17636,-2.82172 -0.17636,-5.81979 -0.17636,-1.93993 0,-4.05622 0.17636,-2.29265 0.17636,-4.23258 0,-2.29265 -0.70543,-4.23258 -0.52907,-2.11629 -0.52907,-3.87986 0,-1.05815 0.35271,-1.93993 0.52907,-1.05815 0.52907,-2.11629 0,-1.41086 -0.52907,-2.82172 -0.35271,-1.41086 -0.35271,-2.82172 0,-1.41086 0.35271,-2.64536 0.35272,-1.2345 0.35272,-2.64536 2.469,-1.2345 4.40893,-1.2345 1.93993,0 2.82172,1.41086 0,3.17443 0.35272,4.938 0.35271,1.58722 0.52907,3.35079 0,1.05815 -0.17636,2.46901 0,1.41086 0.17636,2.82172 0.17636,1.2345 0.70543,2.11629 0.70543,0.88178 2.29264,0.88178 0.35272,0.88179 0.88179,1.58722 0.52907,0.70543 0.70543,1.76357 1.05815,-0.70543 1.2345,-1.93993 0.17636,-1.2345 0,-2.29264 0.88179,0.35271 1.58722,0.35271 0.70543,-0.17636 1.41086,0.17636 0.35271,2.469 0.88179,4.40893 0.52907,1.76358 0.35271,4.23258 3.52715,2.64536 5.99615,7.58337 2.64536,4.76165 4.93801,8.64151 1.2345,1.93994 2.82172,3.70351 1.76357,1.58722 2.64536,3.87986 1.41086,0.88179 2.29265,2.29265 0.88178,1.41086 1.58721,2.82172 3.52715,6.17251 7.75973,11.9923 4.23258,5.8198 8.81787,11.46323 0.17636,-1.2345 0.17636,-2.29264 0,-1.2345 0,-2.46901 L 674.967,357.18623 q 0,-1.41086 -0.17636,-2.64536 0,-1.23451 -0.17635,-2.64537 -0.35272,-4.58529 -0.17636,-8.99422 0.17636,-4.40894 0,-8.99423 -0.35272,-4.76165 -0.52907,-9.69966 0,-4.93801 -0.35272,-9.87602 -0.17635,-2.99807 -0.35271,-5.99615 -0.17636,-2.99807 -0.17636,-5.99615 0,-3.70351 0.70543,-6.70158 0.35271,-0.35272 0.70543,-0.52907 0.52907,-0.35272 1.2345,-0.35272 1.05815,0 1.41086,1.76358 z"
           style="font-size:180.59px;fill:#4381b3;fill-opacity:1;stroke-width:0.300984"
           id="path905-9" />
        <path
           d="m 746.92083,308.15886 q 0,1.58722 -1.05815,2.46901 -1.05814,0.70543 -1.93993,1.93993 -1.76357,1.58722 -3.17443,3.35079 -1.2345,1.58722 -2.99808,3.17443 -0.70543,0.70543 -1.93993,1.93994 -1.2345,1.05814 -2.64536,2.29264 -1.2345,1.05815 -2.64536,1.93993 -1.2345,0.88179 -2.11629,0.88179 -1.41086,0 -3.70351,-0.88179 -2.11629,-1.05814 -3.7035,-1.41086 -1.2345,-0.17635 -2.29265,-0.17635 -0.88179,-0.17636 -1.76357,-1.05815 -3.17444,-0.70543 -4.05622,-2.11629 -0.88179,-1.58721 -1.93994,-3.17443 0,-0.70543 0.52908,-0.88179 0.52907,-0.17635 0.88178,-0.70543 1.76358,-2.29264 2.99808,-3.7035 1.2345,-1.58722 2.82172,-3.17444 2.99808,-2.64536 5.64344,-5.46708 2.82171,-2.82171 5.81979,-5.29072 1.41086,-0.17636 2.11629,-1.05814 0.70543,-0.88179 2.11629,-0.88179 1.41086,0 2.29265,0.88179 1.05814,0.88178 1.76357,2.11629 0.88179,1.05814 1.58722,2.29264 0.88178,1.05815 1.93993,1.58722 1.2345,0.88179 3.35079,2.29265 2.11629,1.41086 2.11629,2.82171 z m -24.16097,32.80248 q 1.2345,0.70543 1.76358,1.93994 0.70543,1.05814 1.93993,1.58721 1.05814,0.52908 2.29264,0.52908 1.23451,0 2.11629,0.35271 0.70543,0.35271 1.05815,0.88179 0.35271,0.52907 0.70543,1.05814 1.05814,0.88179 3.17443,1.58722 2.29265,0.70543 2.99808,1.58722 1.2345,1.58721 1.76357,4.05622 0.70543,2.469 1.05815,5.29072 0.35271,2.64536 0.52907,5.46708 0.17636,2.64536 0.52907,4.58529 0.35271,4.05622 0.88179,8.11244 0.52907,3.87987 0.52907,7.93609 0,4.05622 -0.35272,8.28879 -0.35271,4.23258 -0.35271,8.2888 0,2.11629 -0.17636,5.29073 0,3.17443 -1.41086,4.938 -0.17635,0.70543 -0.17635,2.46901 v 5.64344 q 0,1.05814 0.17635,2.11628 0.17636,1.05815 0.17636,2.29265 0,1.93993 -1.05814,2.82172 -0.52908,-0.17636 -1.23451,-0.17636 -0.52907,0 -1.05814,0 -1.93993,0 -2.82172,0.70543 -1.93993,-0.17636 -3.70351,-0.35271 -1.76357,-0.17636 -3.7035,-0.17636 -2.99808,0 -6.52523,0.88179 -0.70542,-1.76358 -0.70542,-3.70351 0.17635,-1.93993 -0.70543,-3.52715 -0.17636,-0.52907 -0.35272,-0.88178 0,-0.52908 0,-1.05815 0.52907,-2.11629 0.52907,-2.82172 0,-0.88179 0,-1.76357 0,-2.46901 -0.17635,-4.93801 -0.17636,-2.64536 0.17635,-5.11437 0,-0.88178 0.17636,-1.58721 0.35272,-0.70543 0.35272,-1.58722 0,-0.88179 -0.35272,-1.2345 -0.35271,-0.35272 -0.35271,-0.88179 0,-0.52907 0,-1.76357 0.17635,-1.2345 0.52907,-1.58722 0,-1.41086 0,-2.64536 0.17636,-1.41086 0.17636,-2.64536 0,-2.82172 -0.17636,-5.64344 -0.17636,-2.82172 -0.17636,-5.46708 0,-1.2345 -0.17636,-1.58722 -0.17635,-0.35271 -0.35271,-0.52907 -0.17636,-0.17636 -0.52907,-0.17636 -0.35272,-0.17635 -0.52908,-0.70542 0.70543,-7.75973 -0.52907,-15.51946 -1.2345,-7.75972 -1.2345,-15.69581 0,-1.2345 0.35271,-1.76357 0.35272,-0.70543 0.88179,-1.05815 0.52907,-0.35271 0.88179,-0.70543 0.52907,-0.52907 0.70543,-1.41086 1.41086,0.35272 2.469,0 z"
           style="font-size:180.59px;fill:#4381b3;fill-opacity:1;stroke-width:0.300984"
           id="path907-9" />
        <path
           d="m 798.4172,298.10649 q 0.35272,0.70543 0.70543,1.05815 0.52907,0.17635 0.70543,1.05814 1.2345,0.88179 1.93993,1.41086 0.70543,0.35272 0.88179,1.41086 1.58722,1.2345 1.76357,1.58722 0.35272,0.35271 0.52908,0.88178 0.88178,0.70543 1.58721,1.23451 0.88179,0.52907 1.2345,1.58721 1.41086,1.2345 1.76358,1.93993 0.35271,0.70543 0.52907,1.58722 -0.70543,1.2345 -2.82172,3.35079 -2.11629,2.11629 -4.76165,4.58529 -2.64536,2.29265 -5.11436,4.5853 -2.46901,2.11629 -3.87987,3.35079 -0.35271,0.70543 -0.88178,1.2345 -0.52908,0.52907 -0.88179,1.2345 -1.05815,0.88179 -1.93993,1.93993 -0.88179,0.88179 -2.11629,1.41086 -1.76358,2.46901 -4.93801,4.93801 -3.17443,2.29265 -4.23258,4.58529 0.17636,0.52908 0.70543,1.05815 0.70543,0.52907 1.05815,0.88179 1.41086,1.41085 3.35079,2.64536 1.93993,1.05814 3.35079,2.469 1.41086,1.2345 2.82172,2.469 1.41086,1.05815 2.82172,2.29265 0.70543,0.70543 1.76357,2.11629 1.76357,1.41086 3.35079,2.64536 1.76358,1.05815 3.35079,2.469 3.35079,2.82172 6.52523,5.8198 3.17443,2.82172 6.70158,5.64344 l 1.41086,1.58721 q 0,1.41086 0.70543,3.35079 0.88179,1.76358 1.58721,2.99808 -0.35271,1.76357 0,2.29265 0.52908,0.35271 0.88179,0.70543 -0.17636,3.35079 0.17636,4.40893 -2.99808,2.64536 -5.64344,4.93801 -2.469,2.11629 -4.40893,4.23258 -1.58722,1.93993 -3.35079,3.52715 -1.58722,1.41086 -3.52715,3.17443 -1.05815,1.41086 -1.76358,1.93993 -1.2345,1.2345 -2.469,1.93993 -2.11629,1.93993 -4.23258,3.70351 -1.93993,1.76357 -3.87986,3.52715 -1.41086,1.2345 -2.64536,2.469 -1.23451,1.05815 -2.46901,2.46901 -1.05814,1.05814 -2.469,2.469 -1.2345,1.41086 -2.64536,2.29265 -0.52907,1.05814 -1.41086,1.93993 -0.88179,0.70543 -1.58722,1.58721 -1.2345,0.70543 -2.29265,1.41086 -1.05814,0.70543 -2.469,1.41086 -1.41086,-1.05814 -2.82172,-1.93993 -1.2345,-0.88179 -2.82172,-1.2345 -1.05814,-0.88179 -1.58721,-1.76358 -0.52908,-0.88178 -1.93993,-1.2345 -0.35272,-0.52907 -0.88179,-1.05814 -0.35272,-0.70543 -0.70543,-1.41086 -2.11629,-0.17636 -3.35079,-2.64536 0.35271,-1.05815 0.88178,-1.58722 0.70543,-0.52907 0.35272,-1.93993 1.05814,-1.76357 2.469,-2.99808 1.58722,-1.41086 2.99808,-2.82172 1.58722,-1.41085 2.82172,-2.82171 1.41086,-1.58722 2.99807,-2.99808 0.88179,-0.88179 1.76358,-1.58722 0.88179,-0.88178 1.93993,-1.76357 1.93993,-1.93993 3.87986,-3.52715 2.11629,-1.76357 4.23258,-3.70351 2.82172,-2.82171 5.8198,-5.29072 2.99807,-2.64536 5.46708,-5.81979 -0.17636,-0.70543 -0.52908,-0.88179 -0.35271,-0.35271 -0.52907,-0.88179 -2.82172,-2.64536 -5.64344,-5.11436 -2.64536,-2.64536 -5.81979,-4.5853 -1.05815,-1.05814 -1.41086,-1.76357 -3.17443,-2.29265 -6.17251,-5.11436 -2.82172,-2.82172 -6.34887,-4.76165 -0.70543,-0.88179 -1.76357,-1.41086 -0.88179,-0.70543 -1.76357,-1.23451 -0.52908,-0.88178 -1.23451,-1.41086 -0.52907,-0.70542 -1.41086,-1.05814 -1.41086,-1.2345 -1.93993,-1.93993 -0.35271,-0.88179 -1.41086,-1.05815 -0.35271,-0.88178 -1.2345,-1.41086 -0.70543,-0.52907 -1.58722,-1.2345 -0.35271,-1.05814 -1.05814,-1.76357 -0.17636,-1.41086 0.17636,-1.93993 0.35271,-0.70543 0.52907,-1.05815 -0.17636,-1.05814 -0.88179,-1.58721 -0.88178,-0.52908 -0.88178,-1.76358 0,-0.70543 0.52907,-0.88179 0.35271,-0.35271 0.52907,-0.88178 l 0.52907,-2.64536 q 1.41086,-1.05815 2.29265,-2.46901 1.05814,-1.58721 2.64536,-2.469 1.76357,-2.64536 4.40894,-4.40894 0.88178,-1.41086 2.11628,-2.29264 1.41086,-0.88179 2.29265,-2.29265 1.41086,-0.88179 2.29265,-1.93993 1.05814,-1.05815 2.469,-1.93993 0.35272,-0.70543 0.70543,-1.05815 0.52907,-0.52907 0.70543,-1.05814 4.76165,-4.58529 8.2888,-7.93609 3.7035,-3.35079 7.58337,-6.70158 1.05814,-0.88178 2.11629,-1.93993 1.05814,-1.05814 2.29264,-1.93993 0.35272,-0.35272 0.88179,-0.35272 0.52907,0 1.05814,-0.35271 2.11629,0 2.29265,-0.17636 z"
           style="font-size:180.59px;fill:#4381b3;fill-opacity:1;stroke-width:0.300984"
           id="path909-1" />
      </g>
    </g>
  </g>
</svg>
